#Comment line ignore any data following # character 
#Hierarchical Translation and Rotation (.htr) file 
[Header]	
#Header keywords are followed by a single value 
FileType HTR		#Single word string
DataType HTRS		#Translation followed by rotation and scale data
FileVersion 1		#integer
NumSegments 84		#integer
NumFrames 2		#integer
DataFrameRate 30		#integer, data frame rate in this file
EulerRotationOrder ZYX
CalibrationUnits mm
RotationUnits Degrees
GlobalAxisofGravity Y
BoneLengthAxis Y
ScaleFactor 1.00
[SegmentNames&Hierarchy]
#CHILD	PARENT
MASTER GLOBAL
root MASTER
chest root
L_mid_tent01 root
R_mid_tent01 root
spine01 root
Bip01_Neck chest
L_humerus chest
R_humerus chest
weapon_bone chest
Bip01_Head Bip01_Neck
eye_left_bone Bip01_Head
eye_right_bone Bip01_Head
L_forearm L_humerus
L_front_hand L_forearm
L_weapon_bone L_forearm
L_front_hand01_01 L_front_hand
L_front_hand02_01 L_front_hand
L_front_hand03_01 L_front_hand
L_front_hand01_02 L_front_hand01_01
L_front_hand02_02 L_front_hand02_01
L_front_hand03_02 L_front_hand03_01
R_forearm R_humerus
R_front_hand R_forearm
R_weapon_bone R_forearm
R_front_hand01_01 R_front_hand
R_front_hand02_01 R_front_hand
R_front_hand03_01 R_front_hand
R_front_hand01_02 R_front_hand01_01
R_front_hand02_02 R_front_hand02_01
R_front_hand03_02 R_front_hand03_01
null_rope01_connect L_mid_tent01
Rope1_Seg01 null_rope01_connect
Rope1_Seg02 Rope1_Seg01
Rope1_Seg03 Rope1_Seg02
Rope1_Seg04 Rope1_Seg03
Rope1_Seg05 Rope1_Seg04
Rope1_Seg06 Rope1_Seg05
Rope1_Seg07 Rope1_Seg06
Rope1_Seg09 Rope1_Seg07
L_mid_hand01 Rope1_Seg09
L_mid_hand02 Rope1_Seg09
L_mid_hand03 Rope1_Seg09
null_rope02_connect R_mid_tent01
Rope2_Seg01 null_rope02_connect
Rope2_Seg02 Rope2_Seg01
Rope2_Seg03 Rope2_Seg02
Rope2_Seg04 Rope2_Seg03
Rope2_Seg05 Rope2_Seg04
Rope2_Seg06 Rope2_Seg05
Rope2_Seg07 Rope2_Seg06
Rope2_Seg09 Rope2_Seg07
R_mid_hand01 Rope2_Seg09
R_mid_hand02 Rope2_Seg09
R_mid_hand03 Rope2_Seg09
spine02 spine01
spine03 spine02
pelvis spine03
null_rope03_connect pelvis
null_rope04_connect pelvis
Rope3_Seg01 null_rope03_connect
Rope3_Seg02 Rope3_Seg01
Rope3_Seg03 Rope3_Seg02
Rope3_Seg04 Rope3_Seg03
Rope3_Seg05 Rope3_Seg04
Rope3_Seg06 Rope3_Seg05
Rope3_Seg07 Rope3_Seg06
Rope3_Seg08 Rope3_Seg07
Rope3_Seg09 Rope3_Seg08
R_rear_hand01 Rope3_Seg09
R_rear_hand02 Rope3_Seg09
R_rear_hand03 Rope3_Seg09
Rope4_Seg01 null_rope04_connect
Rope4_Seg02 Rope4_Seg01
Rope4_Seg03 Rope4_Seg02
Rope4_Seg04 Rope4_Seg03
Rope4_Seg05 Rope4_Seg04
Rope4_Seg06 Rope4_Seg05
Rope4_Seg07 Rope4_Seg06
Rope4_Seg08 Rope4_Seg07
Rope4_Seg09 Rope4_Seg08
L_rear_hand01 Rope4_Seg09
L_rear_hand02 Rope4_Seg09
L_rear_hand03 Rope4_Seg09
[BasePosition]
#SegmentName Tx, Ty, Tz, Rx, Ry, Rz, BoneLength
MASTER 0.000000 0.000000 0.000000 -90.000000 0.000000 0.000000 10.000000 
root 0.000000 0.000000 0.000000 0.000000 0.000000 0.000000 10.000000 
chest 0.000000 0.000000 0.000000 0.000000 0.000000 0.000000 10.000000 
L_mid_tent01 0.000000 0.000000 0.000000 0.000000 0.000000 0.000000 10.000000 
R_mid_tent01 0.000000 0.000000 0.000000 0.000000 0.000000 0.000000 10.000000 
spine01 0.000000 0.000000 0.000000 0.000000 0.000000 0.000000 10.000000 
Bip01_Neck 0.000000 0.000000 0.000000 0.000000 0.000000 0.000000 10.000000 
L_humerus 0.000000 0.000000 0.000000 0.000000 0.000000 0.000000 10.000000 
R_humerus 0.000000 0.000000 0.000000 0.000000 0.000000 0.000000 10.000000 
weapon_bone 0.000000 0.000000 0.000000 0.000000 0.000000 0.000000 10.000000 
Bip01_Head 0.000000 0.000000 0.000000 0.000000 0.000000 0.000000 10.000000 
eye_left_bone 0.000000 0.000000 0.000000 0.000000 0.000000 0.000000 10.000000 
eye_right_bone 0.000000 0.000000 0.000000 0.000000 0.000000 0.000000 10.000000 
L_forearm 0.000000 0.000000 0.000000 0.000000 0.000000 0.000000 10.000000 
L_front_hand 0.000000 0.000000 0.000000 0.000000 0.000000 0.000000 10.000000 
L_weapon_bone 0.000000 0.000000 0.000000 0.000000 0.000000 0.000000 10.000000 
L_front_hand01_01 0.000000 0.000000 0.000000 0.000000 0.000000 0.000000 10.000000 
L_front_hand02_01 0.000000 0.000000 0.000000 0.000000 0.000000 0.000000 10.000000 
L_front_hand03_01 0.000000 0.000000 0.000000 0.000000 0.000000 0.000000 10.000000 
L_front_hand01_02 0.000000 0.000000 0.000000 0.000000 0.000000 0.000000 10.000000 
L_front_hand02_02 0.000000 0.000000 0.000000 0.000000 0.000000 0.000000 10.000000 
L_front_hand03_02 0.000000 0.000000 0.000000 0.000000 0.000000 0.000000 10.000000 
R_forearm 0.000000 0.000000 0.000000 0.000000 0.000000 0.000000 10.000000 
R_front_hand 0.000000 0.000000 0.000000 0.000000 0.000000 0.000000 10.000000 
R_weapon_bone 0.000000 0.000000 0.000000 0.000000 0.000000 0.000000 10.000000 
R_front_hand01_01 0.000000 0.000000 0.000000 0.000000 0.000000 0.000000 10.000000 
R_front_hand02_01 0.000000 0.000000 0.000000 0.000000 0.000000 0.000000 10.000000 
R_front_hand03_01 0.000000 0.000000 0.000000 0.000000 0.000000 0.000000 10.000000 
R_front_hand01_02 0.000000 0.000000 0.000000 0.000000 0.000000 0.000000 10.000000 
R_front_hand02_02 0.000000 0.000000 0.000000 0.000000 0.000000 0.000000 10.000000 
R_front_hand03_02 0.000000 0.000000 0.000000 0.000000 0.000000 0.000000 10.000000 
null_rope01_connect 0.000000 0.000000 0.000000 0.000000 0.000000 0.000000 10.000000 
Rope1_Seg01 0.000000 0.000000 0.000000 0.000000 0.000000 0.000000 10.000000 
Rope1_Seg02 0.000000 0.000000 0.000000 0.000000 0.000000 0.000000 10.000000 
Rope1_Seg03 0.000000 0.000000 0.000000 0.000000 0.000000 0.000000 10.000000 
Rope1_Seg04 0.000000 0.000000 0.000000 0.000000 0.000000 0.000000 10.000000 
Rope1_Seg05 0.000000 0.000000 0.000000 0.000000 0.000000 0.000000 10.000000 
Rope1_Seg06 0.000000 0.000000 0.000000 0.000000 0.000000 0.000000 10.000000 
Rope1_Seg07 0.000000 0.000000 0.000000 0.000000 0.000000 0.000000 10.000000 
Rope1_Seg09 0.000000 0.000000 0.000000 0.000000 0.000000 0.000000 10.000000 
L_mid_hand01 0.000000 0.000000 0.000000 0.000000 0.000000 0.000000 10.000000 
L_mid_hand02 0.000000 0.000000 0.000000 0.000000 0.000000 0.000000 10.000000 
L_mid_hand03 0.000000 0.000000 0.000000 0.000000 0.000000 0.000000 10.000000 
null_rope02_connect 0.000000 0.000000 0.000000 0.000000 0.000000 0.000000 10.000000 
Rope2_Seg01 0.000000 0.000000 0.000000 0.000000 0.000000 0.000000 10.000000 
Rope2_Seg02 0.000000 0.000000 0.000000 0.000000 0.000000 0.000000 10.000000 
Rope2_Seg03 0.000000 0.000000 0.000000 0.000000 0.000000 0.000000 10.000000 
Rope2_Seg04 0.000000 0.000000 0.000000 0.000000 0.000000 0.000000 10.000000 
Rope2_Seg05 0.000000 0.000000 0.000000 0.000000 0.000000 0.000000 10.000000 
Rope2_Seg06 0.000000 0.000000 0.000000 0.000000 0.000000 0.000000 10.000000 
Rope2_Seg07 0.000000 0.000000 0.000000 0.000000 0.000000 0.000000 10.000000 
Rope2_Seg09 0.000000 0.000000 0.000000 0.000000 0.000000 0.000000 10.000000 
R_mid_hand01 0.000000 0.000000 0.000000 0.000000 0.000000 0.000000 10.000000 
R_mid_hand02 0.000000 0.000000 0.000000 0.000000 0.000000 0.000000 10.000000 
R_mid_hand03 0.000000 0.000000 0.000000 0.000000 0.000000 0.000000 10.000000 
spine02 0.000000 0.000000 0.000000 0.000000 0.000000 0.000000 10.000000 
spine03 0.000000 0.000000 0.000000 0.000000 0.000000 0.000000 10.000000 
pelvis 0.000000 0.000000 0.000000 0.000000 0.000000 0.000000 10.000000 
null_rope03_connect 0.000000 0.000000 0.000000 0.000000 0.000000 0.000000 10.000000 
null_rope04_connect 0.000000 0.000000 0.000000 0.000000 0.000000 0.000000 10.000000 
Rope3_Seg01 0.000000 0.000000 0.000000 0.000000 0.000000 0.000000 10.000000 
Rope3_Seg02 0.000000 0.000000 0.000000 0.000000 0.000000 0.000000 10.000000 
Rope3_Seg03 0.000000 0.000000 0.000000 0.000000 0.000000 0.000000 10.000000 
Rope3_Seg04 0.000000 0.000000 0.000000 0.000000 0.000000 0.000000 10.000000 
Rope3_Seg05 0.000000 0.000000 0.000000 0.000000 0.000000 0.000000 10.000000 
Rope3_Seg06 0.000000 0.000000 0.000000 0.000000 0.000000 0.000000 10.000000 
Rope3_Seg07 0.000000 0.000000 0.000000 0.000000 0.000000 0.000000 10.000000 
Rope3_Seg08 0.000000 0.000000 0.000000 0.000000 0.000000 0.000000 10.000000 
Rope3_Seg09 0.000000 0.000000 0.000000 0.000000 0.000000 0.000000 10.000000 
R_rear_hand01 0.000000 0.000000 0.000000 0.000000 0.000000 0.000000 10.000000 
R_rear_hand02 0.000000 0.000000 0.000000 0.000000 0.000000 0.000000 10.000000 
R_rear_hand03 0.000000 0.000000 0.000000 0.000000 0.000000 0.000000 10.000000 
Rope4_Seg01 0.000000 0.000000 0.000000 0.000000 0.000000 0.000000 10.000000 
Rope4_Seg02 0.000000 0.000000 0.000000 0.000000 0.000000 0.000000 10.000000 
Rope4_Seg03 0.000000 0.000000 0.000000 0.000000 0.000000 0.000000 10.000000 
Rope4_Seg04 0.000000 0.000000 0.000000 0.000000 0.000000 0.000000 10.000000 
Rope4_Seg05 0.000000 0.000000 0.000000 0.000000 0.000000 0.000000 10.000000 
Rope4_Seg06 0.000000 0.000000 0.000000 0.000000 0.000000 0.000000 10.000000 
Rope4_Seg07 0.000000 0.000000 0.000000 0.000000 0.000000 0.000000 10.000000 
Rope4_Seg08 0.000000 0.000000 0.000000 0.000000 0.000000 0.000000 10.000000 
Rope4_Seg09 0.000000 0.000000 0.000000 0.000000 0.000000 0.000000 10.000000 
L_rear_hand01 0.000000 0.000000 0.000000 0.000000 0.000000 0.000000 10.000000 
L_rear_hand02 0.000000 0.000000 0.000000 0.000000 0.000000 0.000000 10.000000 
L_rear_hand03 0.000000 0.000000 0.000000 0.000000 0.000000 0.000000 10.000000 
#Beginning of Data. Separated by tabs
#Fr	Tx	Ty	Tz	Rx	Ry	Rz	SF
[MASTER]
10 -0.000262 1821.693115 0.000000 0.001660 0.001660 0.001660 1821.692993
11 -0.000296 2043.999634 0.000000 0.001660 0.001660 0.001660 2043.999634
[root]
10 -36.556591 106.355278 784.766724 -89.888939 6.000693 -90.528931 792.784119
11 -44.645454 128.608871 840.908630 -90.098785 5.770376 -90.131775 851.857300
[chest]
10 -84.512650 -34.090519 0.000000 5.920921 -1.195208 156.971558 91.129311
11 -84.512650 -34.090519 0.000000 5.874022 -0.726895 155.600861 91.129311
[L_mid_tent01]
10 27.299412 22.177969 -249.918259 -10.567282 18.941751 43.257065 252.381165
11 27.299402 22.178020 -249.918304 -8.819439 17.105419 46.726040 252.381226
[R_mid_tent01]
10 23.228794 24.509907 226.238495 -51.755199 -17.147230 -6.096741 228.744751
11 23.228794 24.509907 226.238495 -65.903816 -20.793625 -10.871316 228.744751
[spine01]
10 -0.361383 -0.195265 0.000000 0.629008 0.261824 18.502501 0.410763
11 -0.361383 -0.195265 0.000000 0.606106 0.251708 18.628723 0.410763
[Bip01_Neck]
10 165.484543 71.581718 0.000119 175.896118 1.177290 24.871185 180.302734
11 165.484543 71.581718 0.000119 175.896118 1.177290 24.871183 180.302734
[L_humerus]
10 -13.983130 -135.272980 -120.471481 -2.747400 65.235550 86.903511 181.680161
11 -13.983130 -135.272980 -120.471481 -2.784253 65.081078 86.855072 181.680161
[R_humerus]
10 -13.983309 -135.273102 125.287651 -72.297707 -42.759151 173.512207 184.909012
11 -13.983309 -135.273102 125.287651 -75.751328 -39.143452 178.667404 184.909012
[weapon_bone]
10 235.964890 -300.705902 0.000000 0.000000 -89.951546 -128.212341 382.234833
11 235.964890 -300.705902 0.000000 0.000000 -89.951546 -128.212341 382.234833
[Bip01_Head]
10 199.210663 133.149979 0.161324 7.084005 4.969776 -60.389965 239.611832
11 200.396439 137.402069 -0.442338 8.103815 5.612391 -61.905029 242.977890
[eye_left_bone]
10 -24.626970 125.451866 -64.772606 0.000000 -90.000000 -99.840431 143.318359
11 -24.626970 125.451866 -64.772606 0.000000 -90.000000 -99.840431 143.318359
[eye_right_bone]
10 -24.626970 125.451866 64.327362 0.000000 -89.960434 80.159386 143.117676
11 -24.626970 125.451866 64.327362 0.000000 -89.960434 80.159386 143.117676
[L_forearm]
10 322.776093 0.000000 -0.000119 0.000229 -0.002336 -101.199532 322.776093
11 322.776093 0.000000 -0.000119 0.000236 -0.002335 -101.519188 322.776093
[L_front_hand]
10 241.149185 -0.042021 -3.300071 -178.667953 -1.835447 -27.422350 241.171753
11 241.149185 -0.042021 -3.300071 -178.667953 -1.835447 -27.422350 241.171753
[L_weapon_bone]
10 156.183838 0.000000 0.000000 0.000014 0.000007 0.000001 156.183838
11 156.183838 0.000000 0.000000 0.000014 0.000007 0.000001 156.183838
[L_front_hand01_01]
10 86.095154 20.947098 -0.655860 -0.366594 -0.477154 75.385574 88.609184
11 86.095154 20.947098 -0.655860 -0.366594 -0.477154 75.385574 88.609184
[L_front_hand02_01]
10 86.935165 -11.437475 24.513514 154.403488 -59.888916 -61.371967 91.046425
11 86.935165 -11.437475 24.513514 154.403519 -59.888931 -61.371990 91.046425
[L_front_hand03_01]
10 86.637497 -14.123976 -20.424902 -153.913849 58.118107 -62.702866 90.126129
11 86.637497 -14.123976 -20.424902 -153.913849 58.118122 -62.702866 90.126129
[L_front_hand01_02]
10 71.020905 -0.000179 0.000030 0.000334 -0.002323 -106.379684 71.020905
11 71.020905 -0.000179 0.000030 0.000334 -0.002323 -106.379684 71.020905
[L_front_hand02_02]
10 71.020927 -0.000119 0.000060 0.000334 -0.002323 -106.379684 71.020927
11 71.020927 -0.000119 0.000060 0.000334 -0.002323 -106.379684 71.020927
[L_front_hand03_02]
10 71.020905 -0.000060 0.000060 0.000334 -0.002323 -106.379684 71.020905
11 71.020905 -0.000060 0.000060 0.000334 -0.002323 -106.379684 71.020905
[R_forearm]
10 322.776428 -0.000060 0.000030 0.206320 0.061537 -107.665115 322.776428
11 322.776428 -0.000060 0.000030 0.206362 0.061394 -107.585449 322.776428
[R_front_hand]
10 238.847015 -0.006795 2.210259 -18.946560 -1.396798 -24.030428 238.857239
11 238.847015 -0.006795 2.210259 -19.391247 -0.863279 -20.657028 238.857239
[R_weapon_bone]
10 155.664093 0.002503 -0.000030 0.003487 0.001180 -90.988930 155.664078
11 155.664093 0.002503 -0.000030 0.003487 0.001180 -90.988930 155.664078
[R_front_hand01_01]
10 87.624611 14.231146 22.918642 -116.960213 3.496675 -1.324139 91.683487
11 87.624611 14.231146 22.918642 -116.960213 3.496675 -1.324139 91.683487
[R_front_hand02_01]
10 89.356956 14.367283 -19.491137 118.419647 -4.257089 0.609827 92.579636
11 89.356956 14.367283 -19.491137 118.419647 -4.257089 0.609827 92.579636
[R_front_hand03_01]
10 87.286232 -22.307278 -0.143439 -0.387970 -0.231462 4.232001 90.091743
11 87.286232 -22.307278 -0.143439 -0.387970 -0.231462 4.232001 90.091743
[R_front_hand01_02]
10 71.020905 0.000060 0.000119 0.001777 0.001534 8.377220 71.020905
11 71.020905 0.000060 0.000119 0.001777 0.001534 8.377220 71.020905
[R_front_hand02_02]
10 71.020844 -0.000030 -0.000119 0.001777 0.001534 8.377220 71.020836
11 71.020844 -0.000030 -0.000119 0.001777 0.001534 8.377220 71.020836
[R_front_hand03_02]
10 71.020905 0.000000 0.000030 0.001777 0.001534 8.377220 71.020905
11 71.020905 0.000000 0.000030 0.001777 0.001534 8.377220 71.020905
[null_rope01_connect]
10 328.732483 0.000000 -0.000238 -167.742737 -68.407333 -153.385727 328.732483
11 328.732483 0.000000 -0.000238 -170.003632 -70.700806 -153.843643 328.732483
[Rope1_Seg01]
10 0.000000 0.000000 0.000000 56.311565 -6.395607 -124.641571 0.000000
11 0.000000 0.000000 0.000000 14.735719 8.875443 -108.675995 0.000000
[Rope1_Seg02]
10 139.999863 -0.000179 0.000000 9.284794 -0.217067 -6.847682 139.999863
11 139.999863 -0.000179 0.000000 6.029047 0.728020 -3.442228 139.999863
[Rope1_Seg03]
10 139.999924 0.000060 -0.000060 12.687657 -3.240814 -5.293563 139.999924
11 139.999924 0.000060 -0.000060 10.948223 -0.286014 -3.688031 139.999924
[Rope1_Seg04]
10 139.999924 -0.000060 -0.000119 11.041241 -6.002872 -2.021981 139.999924
11 139.999924 -0.000060 -0.000119 20.161179 -2.666418 -4.020309 139.999924
[Rope1_Seg05]
10 139.999832 0.000119 -0.000060 17.098547 5.188413 -13.568219 139.999832
11 139.999832 0.000119 -0.000060 -6.946317 4.120866 -3.114563 139.999832
[Rope1_Seg06]
10 139.999954 0.000119 -0.000060 114.769814 5.030864 -24.771103 139.999954
11 139.999954 0.000119 -0.000060 -64.176125 7.493248 -1.555452 139.999954
[Rope1_Seg07]
10 139.999985 0.000060 0.000000 13.950923 -12.260721 3.929655 139.999985
11 139.999985 0.000060 0.000000 -35.213558 2.642343 2.661627 139.999985
[Rope1_Seg09]
10 121.602913 0.000119 -0.000089 -89.793175 -1.359789 0.847147 121.602913
11 121.602913 0.000119 -0.000089 -89.793175 -1.359789 0.847147 121.602913
[L_mid_hand01]
10 103.859421 1.038730 8.195221 114.519745 -53.311653 -20.622324 104.187431
11 103.859421 1.038730 8.195221 114.519676 -53.311787 -20.622223 104.187431
[L_mid_hand02]
10 105.572853 -4.139662 -10.864139 -155.067673 38.166618 -52.448807 106.211075
11 105.572853 -4.139662 -10.864139 -155.067673 38.166626 -52.448818 106.211075
[L_mid_hand03]
10 104.641464 17.579376 -3.913581 -10.970129 15.317457 57.626934 106.179977
11 104.641464 17.579376 -3.913581 -10.970130 15.317461 57.626949 106.179977
[null_rope02_connect]
10 328.732849 0.000179 -0.000119 167.381882 -36.496769 -69.172562 328.732849
11 328.732849 0.000179 -0.000119 176.131531 -22.346176 -67.550446 328.732849
[Rope2_Seg01]
10 0.000023 0.000203 0.000134 -139.380814 30.258127 -39.060310 0.000244
11 0.000026 0.000217 0.000132 -177.589005 31.399397 -47.800819 0.000255
[Rope2_Seg02]
10 139.999741 -0.000060 -0.000119 -23.645859 -0.543989 7.857502 139.999756
11 139.999741 -0.000060 -0.000119 -11.000439 -3.008872 5.308037 139.999756
[Rope2_Seg03]
10 140.000107 0.000030 0.000000 -12.200177 -3.885602 7.468516 140.000107
11 140.000107 0.000030 0.000000 -5.609862 -3.602003 4.231442 140.000107
[Rope2_Seg04]
10 139.999802 0.000000 -0.000060 -5.858780 -6.282198 6.575645 139.999802
11 139.999802 0.000000 -0.000060 -1.445157 -3.993545 2.596062 139.999802
[Rope2_Seg05]
10 139.999985 -0.000060 0.000119 -3.151876 -5.253487 4.892395 139.999985
11 139.999985 -0.000060 0.000119 -1.111757 -3.030827 2.059703 139.999985
[Rope2_Seg06]
10 139.999893 -0.000030 -0.000119 -4.016947 -3.762246 5.721032 139.999893
11 139.999893 -0.000030 -0.000119 -4.053167 -2.241712 4.056417 139.999893
[Rope2_Seg07]
10 139.999893 0.000060 -0.000060 -6.502518 -5.597379 10.958529 139.999893
11 139.999893 0.000060 -0.000060 -7.816218 -3.173789 8.671560 139.999893
[Rope2_Seg09]
10 121.338966 0.000089 -0.000060 84.057106 0.210792 -1.538940 121.338966
11 121.338966 0.000089 -0.000060 88.648300 0.307077 -1.543669 121.338966
[R_mid_hand01]
10 104.680779 11.144459 -10.335981 -47.026211 7.253385 9.439033 105.778534
11 104.680779 11.144459 -10.335981 -47.384258 2.963624 5.452698 105.778534
[R_mid_hand02]
10 104.070427 2.443552 8.231699 75.495117 -7.912875 2.576378 104.424065
11 104.070427 2.443552 8.231699 75.626297 -2.250136 1.111127 104.424065
[R_mid_hand03]
10 106.028137 -11.221827 -5.996406 -164.704529 4.053771 -11.780622 106.788818
11 106.028137 -11.221827 -5.996406 -164.381927 2.496022 -6.140656 106.788818
[spine02]
10 129.756927 0.001550 0.000119 -0.252375 -10.216769 -4.326527 129.756927
11 129.756927 0.001550 0.000119 -0.252592 -11.002123 -4.327530 129.756927
[spine03]
10 78.557175 0.094795 -5.452406 1.829945 4.104915 15.651710 78.746223
11 78.557266 0.094664 -5.451510 1.851608 4.068495 15.961552 78.746254
[pelvis]
10 169.435242 0.051022 0.000000 -0.052879 -0.487211 4.674995 169.435257
11 169.435242 0.051022 0.000000 -0.054016 -0.481119 5.003610 169.435257
[null_rope03_connect]
10 -1.257226 -2.466202 137.391083 55.218060 -84.341270 -5.625482 137.418976
11 -1.257226 -2.466202 137.391083 60.704544 -83.304146 -11.683501 137.418976
[null_rope04_connect]
10 -1.259640 -2.480268 -137.844437 55.218060 -84.341270 -5.625482 137.872513
11 -1.259640 -2.480268 -137.844437 60.704544 -83.304146 -11.683501 137.872513
[Rope3_Seg01]
10 0.000058 -0.000177 0.000000 -130.631104 2.907201 -77.429932 0.000186
11 0.000056 -0.000193 0.000000 -130.781738 -4.556617 -76.224739 0.000201
[Rope3_Seg02]
10 139.999924 -0.000119 0.000060 -0.175486 -2.431655 4.612103 139.999924
11 139.999924 -0.000119 0.000060 0.074611 -4.017155 4.979033 139.999924
[Rope3_Seg03]
10 139.999924 -0.000119 0.000119 -0.552423 -3.041176 5.752860 139.999924
11 139.999924 -0.000119 0.000119 -0.299300 -5.110120 6.404637 139.999924
[Rope3_Seg04]
10 139.999924 0.000119 0.000000 -1.771117 -5.257165 8.746430 139.999924
11 139.999924 0.000119 0.000000 -1.541747 -8.391156 10.021167 139.999924
[Rope3_Seg05]
10 139.999924 -0.000238 0.000060 -5.105762 -10.086399 14.412436 139.999924
11 139.999924 -0.000238 0.000060 -4.247473 -13.321377 14.930984 139.999924
[Rope3_Seg06]
10 139.999893 -0.000119 -0.000060 1.127891 3.009217 0.496368 139.999893
11 139.999893 -0.000119 -0.000060 0.613865 1.635486 0.613867 139.999893
[Rope3_Seg07]
10 139.999771 0.000060 -0.000119 4.850459 15.105780 -12.104186 139.999771
11 139.999771 0.000060 -0.000119 2.490581 17.153553 -13.222059 139.999771
[Rope3_Seg08]
10 139.999985 -0.000060 0.000000 2.595818 6.611660 -5.841931 139.999985
11 139.999985 -0.000060 0.000000 1.773408 8.927000 -7.351871 139.999985
[Rope3_Seg09]
10 90.185997 -0.000179 -0.000060 76.291809 -1.359122 -0.845247 90.185997
11 90.185997 -0.000179 -0.000060 74.404732 -1.358855 -0.849376 90.185997
[R_rear_hand01]
10 103.366196 -6.073594 -10.757982 -173.719330 23.898943 -64.208557 104.101845
11 103.366196 -6.073594 -10.757982 -176.613388 24.447430 -71.266006 104.101845
[R_rear_hand02]
10 100.509819 12.039542 -7.992327 -19.009048 34.423050 61.661335 101.543350
11 100.509819 12.039542 -7.992327 -14.613211 36.296528 69.251999 101.543350
[R_rear_hand03]
10 101.539970 5.215704 5.435467 77.282021 -63.257477 15.261508 101.819031
11 101.539970 5.215704 5.435467 73.547066 -69.515717 19.328257 101.819031
[Rope4_Seg01]
10 0.000086 -0.000210 0.000000 40.421673 13.605407 -126.089172 0.000227
11 0.000085 -0.000246 0.000000 40.939583 9.466756 -128.728287 0.000261
[Rope4_Seg02]
10 139.999985 0.000060 0.000119 -0.937166 7.989373 -0.167900 139.999985
11 139.999985 0.000060 0.000119 -0.955931 7.905670 0.490864 139.999985
[Rope4_Seg03]
10 139.999924 0.000000 -0.000238 -0.397597 6.666834 -0.135439 139.999924
11 139.999924 0.000000 -0.000238 -0.462218 7.269271 0.576898 139.999924
[Rope4_Seg04]
10 139.999985 0.000000 0.000119 -0.277318 6.817032 -2.021513 139.999985
11 139.999985 0.000000 0.000119 -0.366733 7.898490 -0.955666 139.999985
[Rope4_Seg05]
10 139.999802 -0.000060 -0.000119 0.140418 3.879148 0.590345 139.999802
11 139.999802 -0.000060 -0.000119 0.144568 5.478159 0.399732 139.999802
[Rope4_Seg06]
10 139.999924 0.000000 0.000060 -0.127918 0.842351 3.913628 139.999924
11 139.999924 0.000000 0.000060 -0.036338 1.863258 3.444237 139.999924
[Rope4_Seg07]
10 139.999802 0.000000 0.000000 -0.501868 -0.510122 5.228449 139.999802
11 139.999802 0.000000 0.000000 -0.551649 -0.185388 5.365704 139.999802
[Rope4_Seg08]
10 139.999924 0.000000 0.000119 -1.774147 0.443009 2.621525 139.999924
11 139.999924 0.000000 0.000119 -1.857030 0.798775 3.080629 139.999924
[Rope4_Seg09]
10 90.185791 0.000060 0.000060 -135.617828 2.228885 0.850567 90.185791
11 90.185791 0.000060 0.000060 -135.617828 2.228885 0.850567 90.185791
[L_rear_hand01]
10 101.696655 -8.392275 -7.654577 -19.915020 -33.950905 119.950104 102.329041
11 101.696655 -8.392275 -7.654577 -19.915020 -33.950905 119.950104 102.329041
[L_rear_hand02]
10 102.726799 -1.568258 5.773216 77.862221 61.878510 165.399200 102.900848
11 102.726799 -1.568258 5.773216 77.862221 61.878510 165.399200 102.900848
[L_rear_hand03]
10 104.552910 9.721220 -10.420293 -173.099182 -23.740307 -117.327896 105.519653
11 104.552910 9.721220 -10.420293 -173.099182 -23.740307 -117.327896 105.519653
